<svg width="34" height="60" viewBox="0 0 34 60" fill="none" xmlns="http://www.w3.org/2000/svg">
<path d="M17.5005 0.395508C16.2945 0.569258 15.1167 0.674883 14.5717 0.902258C14.2521 1.03563 14.2185 1.09401 14.183 1.20226C14.1477 1.31013 14.1151 1.68388 14.4245 2.43726L14.8799 3.54638L13.7442 3.93051C10.1637 5.14176 7.79175 8.72576 7.74212 11.8839C7.65512 17.3908 12.7341 22.2171 15.4115 26.8201C16.2645 28.2866 16.0037 30.0126 15.3546 31.7226C14.7055 33.4321 13.6296 35.2694 12.4215 37.2676C10.0052 41.2641 7.05925 45.8899 5.85312 50.6204C5.01912 53.8913 6.274 56.0491 8.24012 57.5806C10.2064 59.1123 12.993 59.7731 14.5114 59.5684C16.9191 59.244 18.5701 57.6796 19.5001 55.7664C20.4301 53.8533 20.4846 51.6318 19.8964 50.4576C19.5014 49.6689 18.6985 48.9834 17.7806 48.5809C16.8627 48.1784 15.856 48.0904 15.2247 48.2709C13.1907 48.8521 12.5379 50.2696 12.4197 51.7953C12.3692 52.4463 12.4675 53.0731 12.621 53.5915C12.9822 52.9749 13.391 52.3484 13.8415 51.8028C14.2775 51.2753 14.7219 50.7978 15.4121 50.5209C15.7571 50.3825 16.2034 50.3114 16.6456 50.4328C17.0877 50.5543 17.4575 50.8533 17.7071 51.1894C18.1496 51.7856 18.2734 52.454 18.2765 53.1719C18.2795 53.8901 18.1238 54.6654 17.7363 55.3964C16.961 56.8584 15.064 57.9574 12.528 57.4526C10.3242 57.0139 8.6785 55.6201 8.08487 53.7655C7.49112 51.9108 7.90787 49.7334 9.22987 47.663C12.087 43.188 17.0081 40.5084 20.9391 37.5645C22.9046 36.0925 24.622 34.5705 25.7804 32.8283C26.9388 31.0858 27.5766 29.1429 27.4079 26.5908C27.2366 23.9998 25.4291 21.5176 22.8079 19.295C20.1866 17.0721 16.8285 15.1625 13.9254 13.674L13.9249 13.6738L13.9241 13.6735C13.5269 13.4691 13.2266 13.0501 13.1262 12.6806C13.0262 12.311 13.0579 11.9944 13.1195 11.7148C13.2425 11.1556 13.5024 10.6969 13.8542 10.2893C14.2061 9.88151 14.6642 9.41176 15.523 9.46088C15.9522 9.48538 16.4092 9.73963 16.6699 10.0613C16.9174 10.3666 17.0399 10.699 17.1201 11.0563C17.1245 11.0508 17.1839 11.12 17.4424 11.2233C17.8171 11.3733 18.4771 11.507 19.2856 11.5545C20.9025 11.6488 23.1185 11.4295 25.2784 10.8918C27.6459 10.3024 30.0753 10.8884 32.088 11.4983C32.5105 11.6263 32.8101 11.7268 33.1909 11.8515C33.1809 11.813 33.1596 11.7758 33.1509 11.7373C32.8836 10.5554 33.0709 9.40288 33.3184 8.41601C33.3934 8.11638 33.4769 7.86563 33.559 7.59763C31.939 8.11726 30.051 8.38076 28.1915 8.17563C25.8228 7.91438 23.4343 6.73726 22.2869 4.30438C20.9385 3.99863 19.9612 3.28526 19.2627 2.52013C18.5877 1.78051 18.0946 1.04363 17.4999 0.395633L17.5005 0.395508ZM18.933 5.11026C19.9274 5.11026 20.7334 5.89526 20.7334 6.86401C20.7334 7.83251 19.9274 8.61776 18.9331 8.61776C17.9389 8.61776 17.1329 7.83251 17.1329 6.86401C17.1329 5.89526 17.9389 5.11026 18.9331 5.11026H18.933ZM13.1217 15.9058C18.8114 20.912 21.8462 25.1095 22.3571 29.0216C22.6126 30.9779 22.1702 32.8406 21.1346 34.4566C20.0989 36.0724 18.5106 37.4549 16.4751 38.6935L15.3055 36.7714C17.1467 35.6514 18.4578 34.4634 19.2405 33.2426C20.023 32.0216 20.318 30.7814 20.1261 29.3133C19.7426 26.3773 17.1451 22.4428 11.6356 17.595L13.1217 15.9058ZM0.440125 18.377C1.88512 22.8079 5.35712 26.647 9.55675 30.0945C9.77275 29.3416 10.0382 28.5929 10.433 27.8945C10.8442 27.167 11.4312 26.497 12.1827 26.0145C10.9156 24.249 9.3395 22.288 8.031 20.097C7.91217 20.0964 7.79338 20.0927 7.67475 20.0858C6.64575 20.0239 5.35725 19.7968 4.029 19.4795C2.77325 19.1798 1.51187 18.7966 0.440125 18.377Z" fill="#A18A66"/>
</svg>
